# xmcd
#
# Track frame offsets: 
#        150
#        1951
#        14582
#        51366
#        60482
#        75954
#        94970
#        119059
#        131593
#        150879
#        155299
#        180733
#        259124
#        278195
#        296960
#        303387
#
# Disc length: 4275 seconds
#
# Revision: 1
# Processed by: cddbd v1.5.2PL0 Copyright (c) Steve Scherf et al.
# Submitted via: ExactAudioCopy v1.1
#
DISCID=d710b110
DTITLE=Various Artist - Liberation Music
DYEAR=2013
DGENRE=Jazz
TTITLE0=Angela Davis - We're Threatening The Oppressors (mono)
TTITLE1=Gil Scott-Heron - The Revolution Will Not Be Televised
TTITLE2=Lonnie Liston Smith and The Cosmic Echoes - Sais (Egypt)
TTITLE3=Esoteric Circle - Nefertite
TTITLE4=Black And Blues - Toast To The People
TTITLE5=Louis Armstrong with Leon Thomas - The Creator Has A Master Pl
TTITLE5=an
TTITLE6=Bob Thiele Emergency - Lament For John Coltrane (stereo)
TTITLE7=Carl B. Stokes With The Oliver Nelson Orchestra - Sit Down
TTITLE8=Ornette Colman - Friends And Neighbors
TTITLE9=H. Rap Brown - Excerpt From Speech #2: Do Your Own Thing (mono
TTITLE9=)
TTITLE10=Leon Thomas - Echoes (stereo)
TTITLE11=Horace Tapscott Quintet - The Giant Is Awakened (stereo)
TTITLE12=Gato Barbieri - Tupac Amaru
TTITLE13=Oliver Nelson Orchestra - Martin Was A Man, A Real Man
TTITLE14=Carl B. Stokes with The Oliver Nelson Orchestra - Paint It Bl
TTITLE14=ack
TTITLE15=Chico Hamilton - Gonna Get Some Right Now
EXTD=
EXTT0=
EXTT1=
EXTT2=
EXTT3=
EXTT4=
EXTT5=
EXTT6=
EXTT7=
EXTT8=
EXTT9=
EXTT10=
EXTT11=
EXTT12=
EXTT13=
EXTT14=
EXTT15=
PLAYORDER=
